<svg width="512" height="512" viewBox="0 0 512 512" xmlns="http://www.w3.org/2000/svg" role="img" aria-label="BloodFlow app icon">
  <defs>
    <linearGradient id="bf-bg" x1="0" y1="0" x2="1" y2="1">
      <stop offset="0" stop-color="#ff6a6a"/>
      <stop offset="0.55" stop-color="#e23b54"/>
      <stop offset="1" stop-color="#7b2d8e"/>
    </linearGradient>
    <linearGradient id="bf-drop" x1="0" y1="0" x2="0" y2="1">
      <stop offset="0" stop-color="#ffffff"/>
      <stop offset="1" stop-color="#ffe3ea"/>
    </linearGradient>
    <filter id="bf-shadow" x="-20%" y="-20%" width="140%" height="140%">
      <feDropShadow dx="0" dy="10" stdDeviation="14" flood-color="#5e0f23" flood-opacity="0.35"/>
    </filter>
  </defs>
  <rect width="512" height="512" rx="115" fill="url(#bf-bg)"/>
  <path d="M40 300 q70 -55 130 0 t130 0 t130 0 t130 0" fill="none" stroke="#ffffff" stroke-opacity="0.18" stroke-width="22" stroke-linecap="round"/>
  <path d="M30 360 q70 -55 130 0 t130 0 t130 0 t130 0" fill="none" stroke="#ffffff" stroke-opacity="0.12" stroke-width="22" stroke-linecap="round"/>
  <g filter="url(#bf-shadow)">
    <path d="M256 120 C300 196 350 244 350 304 a94 94 0 1 1 -188 0 C162 244 212 196 256 120 Z" fill="url(#bf-drop)"/>
  </g>
  <path d="M196 308 h26 l16 -34 22 70 18 -44 12 18 h26" fill="none" stroke="#e23b54" stroke-width="13" stroke-linecap="round" stroke-linejoin="round"/>
</svg>
